<svg width="20" height="9" viewBox="0 0 20 9" fill="none" xmlns="http://www.w3.org/2000/svg">
<path fill-rule="evenodd" clip-rule="evenodd" d="M19.7239 0C19.7239 0 14.3788 0 13.8386 0C13.2984 0 13.6994 0.438083 13.6994 0.438083C13.6994 0.438083 13.6482 0.371469 13.9778 0.766227C14.3074 1.16099 13.9778 1.49971 13.9778 1.49971C13.9778 1.49971 13.677 1.92828 13.3813 2.31041C13.0857 2.69255 13.3615 2.92805 13.3615 2.92805C13.3615 2.92805 13.7055 3.38634 13.9182 3.66154C14.1308 3.93672 14.3556 3.66154 14.3556 3.66154C14.3556 3.66154 15.4809 2.06574 15.7274 1.71202C15.9741 1.35835 16.2444 1.40318 16.2444 1.40318C16.2444 1.40318 16.4843 1.40041 16.7614 1.40318C17.0385 1.40594 16.9403 1.61552 16.9403 1.61552C16.9403 1.61552 14.4658 5.09787 14.2959 5.34084C14.126 5.58379 13.9579 5.32154 13.9579 5.32154C13.9579 5.32154 10.4852 0.629783 10.3194 0.399483C10.303 0.376722 10.2865 0.35624 10.2702 0.337714L10.2462 0.305262C10.2462 0.305262 10.1159 0.143653 9.99875 0.14239C9.88156 0.143653 9.75128 0.305262 9.75128 0.305262L9.71119 0.359579C9.701 0.372039 9.69076 0.385313 9.68062 0.399483C9.51477 0.629783 6.04209 5.32154 6.04209 5.32154C6.04209 5.32154 5.87398 5.58379 5.70406 5.34084C5.53417 5.09787 3.05967 1.61552 3.05967 1.61552C3.05967 1.61552 2.96145 1.40599 3.2386 1.40318C3.51579 1.40041 3.75555 1.40318 3.75555 1.40318C3.75555 1.40318 4.02594 1.35835 4.27248 1.71202C4.51903 2.06569 5.64438 3.66154 5.64438 3.66154C5.64438 3.66154 5.86916 3.93672 6.08181 3.66154C6.29446 3.38638 6.63852 2.92805 6.63852 2.92805C6.63852 2.92805 6.91433 2.69255 6.61863 2.31041C6.32294 1.92828 6.02216 1.49971 6.02216 1.49971C6.02216 1.49971 5.69258 1.16099 6.02216 0.766227C6.35175 0.371469 6.30054 0.438083 6.30054 0.438083C6.30054 0.438083 6.7016 0 6.16138 0C5.62116 0 0.276102 0 0.276102 0C0.276102 0 -0.176542 0.0256115 0.0772952 0.399483C0.33109 0.773393 5.58482 8.25541 5.58482 8.25541C5.58482 8.25541 5.7833 8.5748 6.02225 8.23612C6.21095 7.96863 8.59391 4.68092 9.58783 3.30995C9.64882 3.24407 9.789 3.12191 9.98952 3.12227H10.0096C10.2158 3.12188 10.3582 3.2512 10.4163 3.31549C11.4126 4.68976 13.7894 7.96901 13.9778 8.23612C14.2168 8.5748 14.4153 8.25541 14.4153 8.25541C14.4153 8.25541 19.6689 0.773353 19.9228 0.399483C20.1764 0.0256115 19.7239 0 19.7239 0ZM10.3386 5.14779C10.1887 4.93882 10.0637 4.90353 10.0186 4.89783V4.89685C10.0186 4.89685 10.0155 4.89661 10.0096 4.89697C10.0037 4.89661 10.0006 4.89685 10.0006 4.89685V4.89783C9.95552 4.90353 9.83048 4.93882 9.68062 5.14779C9.49191 5.41087 7.31459 8.35195 7.31459 8.35195C7.31459 8.35195 7.16031 8.64769 7.47363 8.66081C7.78698 8.67391 8.50751 8.66081 8.50751 8.66081C8.50751 8.66081 8.86504 8.72424 9.14375 8.33265C9.27452 8.14894 9.47513 7.86571 9.65129 7.6168C9.69466 7.56658 9.81714 7.44684 9.99875 7.4472H10.0155C10.0961 7.4472 10.1674 7.47343 10.2253 7.50646C10.2956 7.55079 10.3506 7.6036 10.3832 7.63846C10.5556 7.88202 10.7485 8.15428 10.8754 8.3327C11.1541 8.72428 11.5117 8.66084 11.5117 8.66084C11.5117 8.66084 12.2322 8.67396 12.5456 8.66084C12.8589 8.64773 12.7046 8.352 12.7046 8.352C12.7046 8.352 10.5273 5.4109 10.3386 5.14779Z" fill="url(#paint0_linear_2891_2)"/>
<defs>
<linearGradient id="paint0_linear_2891_2" x1="13.0868" y1="8.67786" x2="10.5576" y2="-0.99612" gradientUnits="userSpaceOnUse">
<stop stop-color="#FF3B50"/>
<stop offset="0.973958" stop-color="#FF8B3B"/>
</linearGradient>
</defs>
</svg>